<svg xmlns="http://www.w3.org/2000/svg" width="214.060" height="214.940" viewBox="0 0 214.060 214.940" fill="none">
  <path d="M 141.071 2.503 L 152.737 10.965 L 134.61 35.813 L 130.302 41.713 L 136.883 38.435 C 139.097 37.363 141.729 36.767 144.541 36.767 C 149.028 36.767 153.695 38.257 157.344 40.938 C 167.156 48.029 167.754 61.616 158.72 74.011 L 147.712 89.087 L 146.276 91.053 L 148.609 91.828 L 211.786 112.267 L 207.299 125.973 L 177.984 116.498 L 170.985 114.234 L 176.19 119.478 C 180.856 124.185 182.471 132.468 180.138 139.619 C 177.446 147.961 169.788 152.967 159.797 152.967 C 156.327 152.967 152.678 152.371 149.028 151.179 L 131.2 145.399 L 128.867 144.624 L 128.867 213.272 L 114.389 213.272 L 114.389 175.254 L 110.978 181.749 C 107.927 187.589 100.509 191.7 92.971 191.7 C 80.826 191.7 72.33 181.034 72.33 165.779 L 72.33 144.684 L 69.997 145.459 L 6.82 165.898 L 2.333 152.192 L 31.648 142.718 L 38.648 140.453 L 31.409 139.261 C 24.888 138.189 18.726 132.468 16.333 125.317 C 12.564 113.817 20.162 102.494 34.699 97.727 L 52.528 91.947 L 54.861 91.172 L 53.425 89.206 L 14.418 35.575 L 26.084 27.113 L 44.212 51.962 L 48.519 57.862 L 47.443 50.651 C 46.485 44.096 50.015 36.469 56.117 32.059 C 59.408 29.676 63.057 28.484 67.006 28.484 C 74.604 28.484 82.322 33.013 88.125 40.998 L 99.133 56.074 L 100.569 58.04 L 102.004 56.074 L 141.071 2.503 Z M 78.253 98.621 L 63.955 103.269 L 62.579 103.746 L 42.178 110.36 C 33.682 113.101 29.375 120.073 31.648 127.224 C 33.623 133.183 39.186 136.878 46.126 136.878 C 48.28 136.878 50.434 136.52 52.647 135.805 L 71.134 129.846 L 72.45 129.429 L 86.809 124.781 L 86.809 162.621 C 86.809 171.499 92.073 177.756 99.671 177.756 C 108.047 177.756 114.389 170.367 114.389 160.535 L 114.389 124.721 L 128.747 129.369 L 130.063 129.787 L 150.464 136.401 C 152.498 137.057 154.532 137.414 156.447 137.414 C 162.549 137.414 167.216 134.256 168.951 128.893 C 171.523 120.967 166.378 112.684 157.045 109.705 L 138.559 103.746 L 137.123 103.269 L 122.824 98.621 L 131.619 86.524 L 132.516 85.333 L 145.139 67.992 C 150.404 60.782 149.806 52.677 143.704 48.208 C 141.37 46.54 138.618 45.646 135.747 45.646 C 130.482 45.646 125.337 48.506 121.687 53.512 L 110.32 69.184 L 109.423 70.376 L 100.628 82.472 L 91.774 70.316 L 90.937 69.184 L 78.313 51.843 C 75.023 47.374 70.595 44.812 66.049 44.812 C 63.536 44.812 61.083 45.646 58.989 47.136 C 55.699 49.519 53.665 53.154 53.365 57.385 C 53.066 61.497 54.442 65.847 57.194 69.601 L 68.621 85.273 L 69.459 86.465 L 78.313 98.562 M 140.652 0 L 100.509 54.942 L 89.501 39.866 C 83.279 31.344 74.963 26.637 66.946 26.637 C 62.758 26.637 58.69 27.888 55.041 30.57 C 48.34 35.396 44.511 43.679 45.588 50.89 L 26.443 24.611 L 11.846 35.158 L 51.93 90.1 L 34.101 95.88 C 18.786 100.826 10.47 113.101 14.538 125.675 C 17.11 133.481 23.871 139.678 30.99 140.87 L 0 150.881 L 5.564 167.984 L 70.476 147.008 L 70.476 165.66 C 70.476 181.689 79.629 193.369 92.911 193.369 C 101.167 193.369 109.184 188.9 112.534 182.464 L 112.534 214.94 L 130.602 214.94 L 130.602 147.008 L 148.43 152.788 C 152.319 154.04 156.148 154.636 159.737 154.636 C 170.207 154.636 178.762 149.451 181.813 140.096 C 184.386 132.289 182.531 123.351 177.446 118.167 L 208.436 128.178 L 214.06 111.075 L 149.148 90.1 L 160.156 75.024 C 169.609 62.033 169.07 47.195 158.361 39.448 C 154.293 36.469 149.268 34.979 144.481 34.979 C 141.49 34.979 138.559 35.575 136.046 36.826 L 155.19 10.547 L 140.593 0 L 140.652 0 Z M 46.126 135.09 C 40.084 135.09 35.118 131.932 33.323 126.688 C 31.289 120.431 35.178 114.472 42.656 112.088 L 63.117 105.474 L 64.493 104.997 L 79.091 100.29 L 81.125 99.634 L 79.689 97.608 L 70.835 85.511 L 69.997 84.379 L 58.57 68.707 C 53.365 61.556 53.964 53.035 59.946 48.685 C 61.801 47.314 63.895 46.659 65.989 46.659 C 69.818 46.659 73.826 48.864 76.817 52.975 L 89.441 70.316 L 90.278 71.448 L 100.09 84.856 L 100.569 85.571 L 101.047 84.915 L 110.799 71.508 L 111.696 70.316 L 123.123 54.644 C 126.533 49.996 131.26 47.493 135.747 47.493 C 138.2 47.493 140.593 48.208 142.687 49.757 C 147.951 53.631 148.37 60.722 143.763 67.039 L 131.14 84.379 L 130.302 85.511 L 121.388 97.787 L 120.012 99.634 L 121.508 100.111 L 136.644 104.997 L 138.08 105.474 L 156.566 111.433 C 165.062 114.174 169.549 121.444 167.275 128.416 C 165.78 133.064 161.652 135.686 156.507 135.686 C 154.772 135.686 152.977 135.388 151.062 134.792 L 130.661 128.178 L 129.345 127.761 L 112.654 122.338 L 112.654 160.595 C 112.654 169.473 107.09 176.028 99.731 176.028 C 93.21 176.028 88.663 170.486 88.663 162.68 L 88.663 122.397 L 71.971 127.761 L 70.595 128.178 L 52.109 134.137 C 50.075 134.792 48.101 135.09 46.186 135.09 L 46.126 135.09 Z" fill="currentColor" fill-rule="nonzero"></path>
</svg>